Coordinates
version=1
nRows=9
nColumns=36
inDegrees=yes

Units are S.I. units (second, meters, Newtons, ...)
If the header above contains a line with 'inDegrees', this indicates whether rotational values are in degrees (yes) or radians (no).

endheader
time	pelvis_tilt	pelvis_list	pelvis_rotation	pelvis_tx	pelvis_ty	pelvis_tz	hip_flexion_r	hip_adduction_r	hip_rotation_r	knee_angle_r	knee_angle_r_beta	ankle_angle_r	subtalar_angle_r	mtp_angle_r	hip_flexion_l	hip_adduction_l	hip_rotation_l	knee_angle_l	knee_angle_l_beta	ankle_angle_l	subtalar_angle_l	mtp_angle_l	lumbar_extension	lumbar_bending	lumbar_rotation	arm_flex_r	arm_add_r	arm_rot_r	elbow_flex_r	pro_sup_r	arm_flex_l	arm_add_l	arm_rot_l	elbow_flex_l	pro_sup_l
      2.82083330	     -4.25185906	      2.53072529	      2.19723612	      0.30831352	      0.80045122	     -0.10042969	     39.79983779	    -12.41843511	      5.70878485	     65.60605050	      1.14504159	     24.50792333	    -24.20457165	     -7.49999987	     39.62329182	      0.42769237	      0.27457278	     67.99222034	      1.18668811	     31.30005288	    -14.84646493	     -7.49999987	    -33.08967047	      3.99752791	     -0.27389189	     38.06291018	    -18.22589566	     13.11719612	     28.79594016	     69.46487158	     35.37847656	    -13.24407677	     -9.17334946	     41.91500883	     51.55509211
      2.82500000	     -4.49646674	      2.52056007	      1.98846605	      0.30411693	      0.80034063	     -0.09533437	     40.10431550	    -12.43031663	      5.52487760	     65.27211922	      1.13921339	     24.55153533	    -23.66707047	     -7.49999987	     39.73184597	      0.16260948	      0.04056003	     67.39595840	      1.17628138	     30.71840868	    -15.22552039	     -7.49999987	    -32.87885244	      4.06287493	      0.17226121	     38.15912834	    -18.58601489	     12.46185706	     27.65484373	     69.36988449	     35.05071354	    -12.83322409	    -10.37657813	     41.89976499	     51.45993531
      2.82916670	     -4.87438210	      2.55662039	      1.97270871	      0.30815452	      0.80060163	     -0.10018435	     40.40030244	    -12.71562677	      5.41813834	     65.13352251	      1.13679442	     24.97221507	    -22.48214952	     -7.49999987	     39.80008162	      0.37066300	      0.05880101	     66.87455334	      1.16718114	     30.74293625	    -15.26584231	     -7.49999987	    -32.27305919	      4.34941656	      0.02316197	     38.05516413	    -18.89652613	     12.01961143	     27.22068747	     69.26583771	     34.26400846	    -12.79588690	    -11.21366931	     41.66752967	     51.42692595
      2.83333330	     -5.25712953	      2.54989935	      1.98324612	      0.30439309	      0.80651849	     -0.09555798	     40.47581694	    -12.60811598	      5.38809989	     64.43460728	      1.12459605	     24.95162493	    -22.13647302	     -7.49999987	     39.80244432	      0.18739613	     -0.08765905	     65.96256469	      1.15126394	     30.34504681	    -14.98844141	     -7.49999987	    -31.98133375	      4.35929277	      0.12941082	     37.85929773	    -19.24253911	     11.84412528	     27.08019748	     69.21629456	     33.91449739	    -12.88025283	    -11.45503582	     41.59297086	     51.41853033
      2.83750000	     -5.55749994	      2.53826524	      1.83856682	      0.30466460	      0.80648165	     -0.09560221	     40.65517135	    -12.48790073	      5.40007827	     64.05023769	      1.11788753	     25.19380218	    -20.96910850	     -7.49999987	     39.69034558	      0.13409343	     -0.00259255	     65.12243944	      1.13660099	     29.92171918	    -15.15688657	     -7.49999987	    -31.62971577	      4.23459026	      0.56235894	     37.43035846	    -19.70920416	     11.02864604	     27.04880941	     68.41771604	     33.79641827	    -12.58928675	    -12.26848486	     41.52155831	     51.79570691
      2.84166670	     -6.16522049	      2.43418439	      2.19437240	      0.30480908	      0.80332072	     -0.09645133	     41.08722102	    -12.73742991	      4.95664329	     63.99270911	      1.11688347	     25.52686612	    -20.31997414	     -7.49999987	     40.12597233	      0.21975054	      0.28628572	     64.60305889	      1.12753608	     29.90173023	    -14.94305397	     -7.49999987	    -30.75415477	      4.35018500	      0.53851543	     36.92016857	    -19.92276234	     10.23840863	     26.79706112	     67.71054466	     33.76603313	    -12.46764363	    -12.86530928	     40.86414977	     52.10216102
      2.84583330	     -6.60754199	      2.39365822	      2.34573436	      0.30506636	      0.80931776	     -0.09668126	     41.26589980	    -12.81761402	      4.68152612	     63.34989193	      1.10566419	     25.54016858	    -19.75236312	     -7.49999987	     40.16170882	      0.35220396	      0.47053243	     63.70942535	      1.11193924	     29.51231027	    -15.09293837	     -7.49999987	    -30.04160363	      4.27580583	      0.57932718	     36.34318890	    -20.13310590	      9.73623211	     26.75564826	     67.49129191	     33.63828420	    -12.49247397	    -13.11304840	     40.44071946	     52.04369006
      2.85000000	     -7.14416408	      2.28137597	      2.43393598	      0.30546474	      0.80945366	     -0.09723144	     41.42011389	    -12.73333034	      4.56353532	     62.79160372	      1.09592023	     25.43702522	    -19.67454430	     -7.49999987	     40.33642417	      0.45185463	      0.72903198	     62.95919367	      1.09884522	     29.36839301	    -15.02153811	     -7.49999987	    -29.45449017	      4.20782766	      0.49408884	     35.68699488	    -20.47170197	      9.56717167	     27.30406849	     67.15812895	     33.05774322	    -12.59637525	    -13.23127116	     40.96973368	     52.29873404
      2.85416670	     -7.61644375	      2.32119633	      2.68218790	      0.30603971	      0.81212072	     -0.09790980	     41.45172476	    -12.91143758	      4.43756494	     61.93265061	      1.08092867	     24.85663893	    -19.72682132	     -7.49999987	     40.44861392	      0.86799825	      1.10563994	     62.17567805	      1.08517030	     28.62231823	    -15.70919305	     -7.49999987	    -28.71770344	      4.11706339	      0.27940701	     35.13711652	    -20.41834905	      8.73344279	     27.32003761	     66.38363411	     32.83598392	    -12.49630413	    -13.81973321	     40.67780414	     52.63845483
